<mxfile host="app.diagrams.net" agent="Mozilla/5.0 (Windows NT 10.0; Win64; x64) AppleWebKit/537.36 (KHTML, like Gecko) Chrome/131.0.0.0 Safari/537.36 Edg/131.0.0.0" version="25.0.1">
  <diagram name="Sayfa -1" id="TGWnPlI-MkY6m8sQ1M-e">
    <mxGraphModel dx="1826" dy="839" grid="0" gridSize="10" guides="1" tooltips="1" connect="1" arrows="1" fold="1" page="0" pageScale="1" pageWidth="827" pageHeight="1169" math="0" shadow="0">
      <root>
        <mxCell id="0" />
        <mxCell id="1" parent="0" />
        <mxCell id="VHnJRAqwl-OwjMqJf18B-4" style="edgeStyle=none;curved=1;rounded=0;orthogonalLoop=1;jettySize=auto;html=1;exitX=1;exitY=0.5;exitDx=0;exitDy=0;entryX=0;entryY=0.5;entryDx=0;entryDy=0;fontSize=12;startSize=8;endSize=8;" edge="1" parent="1" source="VHnJRAqwl-OwjMqJf18B-1" target="VHnJRAqwl-OwjMqJf18B-2">
          <mxGeometry relative="1" as="geometry" />
        </mxCell>
        <mxCell id="VHnJRAqwl-OwjMqJf18B-1" value="&lt;font style=&quot;font-size: 18px;&quot;&gt;HC-SR04 Ultrasonic Sensor&lt;/font&gt;" style="rounded=0;whiteSpace=wrap;html=1;fillColor=#ffe6cc;strokeColor=#d79b00;" vertex="1" parent="1">
          <mxGeometry x="-33" y="221" width="157" height="86" as="geometry" />
        </mxCell>
        <mxCell id="VHnJRAqwl-OwjMqJf18B-5" style="edgeStyle=none;curved=1;rounded=0;orthogonalLoop=1;jettySize=auto;html=1;exitX=1;exitY=0.5;exitDx=0;exitDy=0;entryX=0;entryY=0.5;entryDx=0;entryDy=0;fontSize=12;startSize=8;endSize=8;" edge="1" parent="1" source="VHnJRAqwl-OwjMqJf18B-2" target="VHnJRAqwl-OwjMqJf18B-3">
          <mxGeometry relative="1" as="geometry" />
        </mxCell>
        <mxCell id="VHnJRAqwl-OwjMqJf18B-2" value="&lt;div style=&quot;padding-right: 15px; padding-left: 15px;&quot;&gt;&lt;span style=&quot;font-size: 18px; background-color: initial;&quot;&gt;STM32 NUCLEO-L552ZE-Q Board&lt;/span&gt;&lt;/div&gt;" style="whiteSpace=wrap;html=1;aspect=fixed;align=center;fillColor=#d5e8d4;strokeColor=#82b366;" vertex="1" parent="1">
          <mxGeometry x="241" y="117" width="294" height="294" as="geometry" />
        </mxCell>
        <mxCell id="VHnJRAqwl-OwjMqJf18B-3" value="&lt;font style=&quot;font-size: 18px;&quot;&gt;Buzzer&lt;/font&gt;" style="rounded=0;whiteSpace=wrap;html=1;fillColor=#f8cecc;strokeColor=#b85450;" vertex="1" parent="1">
          <mxGeometry x="620" y="219" width="156" height="90" as="geometry" />
        </mxCell>
      </root>
    </mxGraphModel>
  </diagram>
</mxfile>
